<svg xmlns="http://www.w3.org/2000/svg" enable-background="new 0 0 68 68" viewBox="0 0 68 68"><path fill="#e8edf2" d="M46.6477165,51.5151596c-3.5868797,2.4458733-5.7063713,6.5077324-5.7063713,10.8555069v0.1764565
				c0,1.9025688-1.5486526,3.4508934-3.4508896,3.4508934H25.7115288c-1.9019032,0-3.4508896-1.5483246-3.4508896-3.4508934
				v-4.5786285c0-0.760231-0.7064972-1.3174667-1.4401932-1.1410103l-4.9995432,1.1549416
				c-3.1653051,0.7197647-6.3173428-1.3041992-6.9422436-4.497036L8.03617,49.2736053
				c-0.0951948-0.5161057-0.4753103-0.92342-0.964551-1.0866089l-2.13309-0.6792984
				c-2.2959487-0.7197647-3.2604995-3.4236908-1.9427004-5.4343872l3.7225418-5.7063751
				c0.8152909-1.2770004,1.2365355-2.7715874,1.1821384-4.2794456c-0.0135989-0.366848-0.0271983-0.733696-0.0271983-1.100544
				c0-14.6321144,12.6618843-26.3155155,27.6336479-24.6716671c11.6024704,1.2770014,20.8953934,10.8004475,21.914341,22.4301167
				C58.2501869,38.1879082,53.7803497,46.6652069,46.6477165,51.5151596z"/><path fill="#fff" d="M17.8092918,16.738987c-3.1786394,3.3187847-5.1046305,7.5259285-5.5908079,12.0320816
					c-0.0746384,0.7107773-0.6824741,1.2343884-1.3930225,1.2343884c-0.8413372,0-1.495965-0.7386246-1.4117393-1.5799618
					c0.5610437-5.0955009,2.7675571-9.8636875,6.3668642-13.631217c0.5423279-0.5610437,1.4304562-0.5797606,1.9819145-0.0374336
					C18.3235435,15.2895851,18.3422604,16.1779423,17.8092918,16.738987z"/><path fill="#c4d3e4" d="M57.4213066,28.7455044c-1.0189171-11.6299019-10.3119736-21.153038-21.914257-22.430336
				c-1.274334-0.1396904-2.5299454-0.1757541-3.7641068-0.1291909v59.8120995h5.7473907
				c1.9022522,0,3.450943-1.5484619,3.450943-3.4511719V62.370697c0-4.3477478,2.1195488-8.4097214,5.7065315-10.8556709
				C53.7802315,46.665123,58.2503204,38.1878395,57.4213066,28.7455044z"/><path fill="#108be1" d="M46.4658356,10.692872c8.3609047-8.3609047,15.0022049-10.3265896,17.8860397-7.4427576
						c2.8838272,2.883832,0.9181442,9.5251322-7.4427605,17.8860378S36.9581871,36.4114647,34.0743561,33.5276299
						C31.1905231,30.6437988,38.1049309,19.0537777,46.4658356,10.692872z"/><path fill="#4db6ff" d="M52.3601418 23.7527618c-.3392372 0-.6771088-.1402092-.9195671-.414814-.4476433-.5076599-.3990822-1.2820587.1084061-1.7298717 1.0331001-.9113598 2.0449982-1.8615322 3.0079956-2.824358.1980019-.1981735.3915596-.3946381.581356-.58922.4722633-.4849186 1.2482033-.4950066 1.73312-.0225716.4849205.4722652.4948349 1.2482033.0225716 1.7331219-.1969757.2021065-.3977165.4060936-.6039276.6121311-.9989014.9987335-2.04842 1.9843006-3.1194801 2.9290028C52.9377327 23.6517086 52.6484261 23.7527618 52.3601418 23.7527618zM58.7663269 17.2227802c-.2746048 0-.5509186-.0918198-.7793579-.2802467-.5221939-.4307156-.5960579-1.2030621-.1655159-1.725256.1518364-.1839809.2992287-.3660822.4425163-.5456181.4213104-.5298882 1.1928024-.6167488 1.7221756-.1949253.529377.4216537.6169205 1.1928034.1949272 1.7221775-.1514969.1904793-.3077774.3831825-.4685059.5781059C59.470108 17.0707741 59.1195869 17.2227802 58.7663269 17.2227802z"/><path fill="#0c6bc3" d="M33.9659195,33.3955688L64.2201538,3.1413383
						c-2.9471397-2.7085569-9.511219-0.691597-17.7543373,7.5515213
						C38.2219162,18.9367599,31.3913288,30.3140945,33.9659195,33.3955688z"/><path fill="#fabb53" d="M38.2031975,20.6959743c-3.8722038,5.7428856-5.9455719,11.015049-4.1289406,12.8316822
							c1.8167648,1.8167648,7.0887985-0.2567368,12.8316841-4.1289387
							C45.7182808,24.9462643,42.8663902,22.0008278,38.2031975,20.6959743z"/><path fill="#f99944" d="M43.6918144,23.7113113c-1.4217873-1.3744946-3.2429657-2.3870125-5.4886169-3.015337
						c-3.8010063,5.6373863-5.8594322,10.8127518-4.2158585,12.7198162L43.6918144,23.7113113z"/><path fill="#454545" d="M35.5084076,41.1080132c-1.5168457,0.6087227-3.1620102,0.7584229-4.7964821,0.8011971
						c-0.8867416,0.0213852-1.4743366,0.3844261-1.8694572,0.8116264c-0.5127449,0.5555191-0.6945267,1.346283-0.6089821,2.0937538
						l0.0641575,0.5341301c0.0106926,0.0537262,0.0106926,0.1069298,0.0106926,0.160656
						c0,0.4804039-0.2456779,0.9185562-0.6731396,1.1532822c-0.5659485,0.3098373-1.2711678,0.1710892-1.6769829-0.3312225
						c-2.7241173-3.3325806-2.6813469-7.5096474-2.2006798-10.3513908c0.3739948-2.2215424,1.2604752-4.3476353,2.6920395-6.0783424
						c3.1940899-3.8672314,6.8367691-3.4181232,9.1761971-2.4567928c2.1792946,0.8757858,3.952774,2.6174488,4.8499489,4.7857914
						C42.0462914,36.0228195,39.8988152,39.3449669,35.5084076,41.1080132z"/><path fill="#2c2c2c" d="M38.3025055,29.1474171l-8,8.0100117l-6.0800781,6.079834
						c-0.0698242-0.1799316-0.1298828-0.369873-0.1799316-0.5500488c-0.1000977-0.329834-0.1899414-0.6699219-0.2600098-1
						c-0.0100098-0.0397949-0.0200195-0.0698242-0.0200195-0.1098633c-0.0700684-0.3701172-0.1298828-0.7299805-0.1699219-1.1000977
						c-0.1501465-1.3598633-0.0800781-2.6799316,0.0698242-3.829834c0.0300293-0.2299805,0.0600586-0.4499512,0.1000977-0.670166
						c0.0900879-0.5598145,0.2199707-1.0998535,0.3798828-1.6398926c0.0700684-0.2600098,0.1501465-0.5200195,0.25-0.7700195
						c0-0.0200195,0.0102539-0.0300293,0.0200195-0.0400391c0.0500488-0.1799316,0.1201172-0.3498535,0.2001953-0.5200195
						c0.0600586-0.1699219,0.1398926-0.3398438,0.2199707-0.5c0-0.0200195,0.0100098-0.0300293,0.0200195-0.0500488
						c0.4199219-0.909914,0.9599609-1.7797871,1.5998535-2.5598164c3.1899414-3.8601074,6.8300781-3.4101563,9.1699219-2.4499512
						C36.6223297,27.8473682,37.5224762,28.4274464,38.3025055,29.1474171z"/><g><path fill="#e9293a" d="M37.3025055,40.227253c-0.5400391,0.3300781-1.1401367,0.6201172-1.7900391,0.880127
				c-1.5200195,0.6101074-3.1699219,0.7600098-4.8000488,0.8000488c-0.8898926,0.0200195-1.4699707,0.3898926-1.869873,0.8100586
				c-0.5100098,0.5598145-0.6899414,1.3498535-0.6101074,2.0998535l0.0700684,0.5300293
				c0.0100098,0.0600586,0.0100098,0.1098633,0.0100098,0.1599121c0,0.4799805-0.25,0.920166-0.6799316,1.1601563
				c-0.5600586,0.3098145-1.2700195,0.1699219-1.670166-0.3400879c-2.7299805-3.3300781-2.6899414-7.5100098-2.1999512-10.3500977
				c0.1999512-1.2199707,0.5600586-2.4099121,1.0900879-3.5200195c1.5898438,0.0900879,3.1799316,0.6101074,3.9899902,1.9301758
				c0.5498047,0.8898926,0.6699219,2.0498047,1.4399414,2.75c0.8000488,0.75,2.0200195,0.7399902,3.1000977,0.9199219
				C34.8923492,38.3073311,36.3425446,39.0473213,37.3025055,40.227253z"/></g><g><path fill="#d42032" d="M30.3025055,37.1574287l-6.0800781,6.079834c-0.0698242-0.1799316-0.1298828-0.369873-0.1799316-0.5500488
				c-0.1000977-0.329834-0.1899414-0.6699219-0.2600098-1c-0.0100098-0.0397949-0.0200195-0.0698242-0.0200195-0.1098633
				c-0.0700684-0.3701172-0.1298828-0.7299805-0.1699219-1.1000977c-0.1501465-1.369873-0.0900879-2.6799316,0.0698242-3.829834
				c0.0300293-0.2299805,0.0600586-0.4499512,0.1000977-0.670166c0.0900879-0.5598145,0.2199707-1.0998535,0.3798828-1.6398926
				c0.0700684-0.2600098,0.1501465-0.5200195,0.25-0.7700195c0-0.0200195,0.0102539-0.0300293,0.0200195-0.0400391
				c0.0500488-0.1799316,0.1201172-0.3498535,0.2001953-0.5200195c0.0600586-0.1699219,0.1398926-0.3398438,0.2199707-0.5
				c0-0.0200195,0.0100098-0.0300293,0.0200195-0.0500488c1.5898438,0.0900879,3.1799316,0.6101074,3.9899902,1.9301758
				c0.5498047,0.8898926,0.6699219,2.0498047,1.4399414,2.75C30.2924957,37.147419,30.2924957,37.147419,30.3025055,37.1574287z"/></g></svg>